<svg width="28" height="15" viewBox="0 0 28 15" fill="none" xmlns="http://www.w3.org/2000/svg">
<path id="Arrow 1" d="M1 6.5C0.447715 6.5 0 6.94772 0 7.5C0 8.05228 0.447715 8.5 1 8.5V6.5ZM27.7071 8.20711C28.0976 7.81658 28.0976 7.18342 27.7071 6.79289L21.3431 0.428932C20.9526 0.0384078 20.3195 0.0384078 19.9289 0.428932C19.5384 0.819457 19.5384 1.45262 19.9289 1.84315L25.5858 7.5L19.9289 13.1569C19.5384 13.5474 19.5384 14.1805 19.9289 14.5711C20.3195 14.9616 20.9526 14.9616 21.3431 14.5711L27.7071 8.20711ZM1 8.5H27V6.5H1V8.5Z" fill="#1D1D1D"/>
</svg>
