<svg width="30" height="20" viewBox="0 0 30 20" fill="none" xmlns="http://www.w3.org/2000/svg">
<g id="Group">
<g id="Group_2">
<g id="Group_3">
<path id="Vector" d="M12.3423 9.09996C12.9648 8.78681 13.4355 8.43803 13.758 8.06113C14.3318 7.38232 14.615 6.48225 14.615 5.36653C14.615 4.28082 14.3318 3.35262 13.7655 2.57443C12.8204 1.30682 11.2209 0.65802 8.95949 0.624268H0V18.9126H8.35381C9.29514 18.9126 10.1671 18.832 10.9734 18.667C11.7797 18.5001 12.4773 18.1945 13.0679 17.7482C13.593 17.36 14.0318 16.8781 14.3806 16.3099C14.9319 15.4511 15.2075 14.4779 15.2075 13.3941C15.2075 12.344 14.9656 11.4495 14.4856 10.7145C13.9999 9.97941 13.2873 9.44124 12.3423 9.09996ZM3.69593 3.80078H7.73126C8.61821 3.80078 9.34952 3.89641 9.92331 4.0858C10.5871 4.36145 10.919 4.92212 10.919 5.77719C10.919 6.54413 10.6659 7.08042 10.1652 7.38232C9.66079 7.68422 9.00636 7.83611 8.2038 7.83611H3.69593V3.80078ZM10.0771 15.4174C9.63079 15.633 9.00261 15.7399 8.19817 15.7399H3.69593V10.8626H8.26005C9.05512 10.8682 9.67392 10.9732 10.1165 11.1701C10.904 11.5264 11.2959 12.179 11.2959 13.1334C11.2959 14.2585 10.8909 15.0161 10.0771 15.4174Z" fill="white"/>
<path id="Vector_2" d="M27.1167 1.47754H19.1716V3.75398H27.1167V1.47754Z" fill="white"/>
<path id="Vector_3" d="M29.8769 10.4612C29.7119 9.40176 29.3481 8.46981 28.7818 7.66537C28.1611 6.75404 27.3735 6.08649 26.4153 5.66458C25.4609 5.24079 24.3864 5.0289 23.1901 5.03077C21.1818 5.03077 19.5504 5.65895 18.2884 6.90593C17.0302 8.15666 16.4001 9.95493 16.4001 12.2989C16.4001 14.7984 17.0958 16.6042 18.4947 17.7124C19.8879 18.8225 21.4968 19.3757 23.3232 19.3757C25.534 19.3757 27.2535 18.7175 28.4818 17.4049C29.2675 16.5761 29.7119 15.7604 29.8094 14.9597H26.1491C25.9372 15.3554 25.6915 15.6648 25.4103 15.8898C24.9002 16.3023 24.2364 16.5086 23.4226 16.5086C22.6482 16.5086 21.9919 16.3379 21.4443 15.9985C20.5405 15.4548 20.0679 14.5022 20.0079 13.1464H29.9969C30.0119 11.9782 29.9744 11.08 29.8769 10.4612ZM20.0979 10.8119C20.2292 9.93243 20.548 9.23487 21.0543 8.7192C21.5606 8.20541 22.2769 7.94664 23.1938 7.94476C24.0395 7.94476 24.7465 8.18666 25.3221 8.67232C25.8903 9.16174 26.2109 9.87242 26.2766 10.8119H20.0979Z" fill="white"/>
</g>
</g>
</g>
</svg>
