<svg width="30" height="30" viewBox="0 0 30 30" fill="none" xmlns="http://www.w3.org/2000/svg">
<g id="Group">
<path id="Vector" d="M15 2.7025C19.005 2.7025 19.48 2.7175 21.0613 2.79C22.6963 2.865 24.38 3.2375 25.5713 4.42875C26.7738 5.63125 27.135 7.29875 27.21 8.93875C27.2825 10.52 27.2975 10.995 27.2975 15C27.2975 19.005 27.2825 19.48 27.21 21.0613C27.1362 22.6875 26.755 24.3875 25.5713 25.5713C24.3688 26.7738 22.7025 27.135 21.0613 27.21C19.48 27.2825 19.005 27.2975 15 27.2975C10.995 27.2975 10.52 27.2825 8.93875 27.21C7.325 27.1362 5.6025 26.7463 4.42875 25.5713C3.2325 24.375 2.865 22.6913 2.79 21.0613C2.7175 19.48 2.7025 19.005 2.7025 15C2.7025 10.995 2.7175 10.52 2.79 8.93875C2.86375 7.31875 3.24875 5.60875 4.42875 4.42875C5.62875 3.22875 7.3025 2.865 8.93875 2.79C10.52 2.7175 10.995 2.7025 15 2.7025ZM15 0C10.9262 0 10.415 0.0175 8.815 0.09C6.49625 0.19625 4.19375 0.84125 2.5175 2.5175C0.835 4.2 0.19625 6.4975 0.09 8.815C0.0175 10.415 0 10.9262 0 15C0 19.0737 0.0175 19.585 0.09 21.185C0.19625 23.5012 0.84375 25.81 2.5175 27.4825C4.19875 29.1637 6.5 29.8037 8.815 29.91C10.415 29.9825 10.9262 30 15 30C19.0737 30 19.585 29.9825 21.185 29.91C23.5025 29.8037 25.8075 29.1575 27.4825 27.4825C29.1663 25.7987 29.8037 23.5025 29.91 21.185C29.9825 19.585 30 19.0737 30 15C30 10.9262 29.9825 10.415 29.91 8.815C29.8037 6.49625 29.1575 4.1925 27.4825 2.5175C25.8037 0.83875 23.4963 0.195 21.185 0.09C19.585 0.0175 19.0737 0 15 0Z" fill="white"/>
<path id="Vector_2" d="M15.0001 7.29761C10.7464 7.29761 7.29761 10.7464 7.29761 15.0001C7.29761 19.2539 10.7464 22.7026 15.0001 22.7026C19.2539 22.7026 22.7026 19.2539 22.7026 15.0001C22.7026 10.7464 19.2539 7.29761 15.0001 7.29761ZM15.0001 20.0001C12.2389 20.0001 10.0001 17.7614 10.0001 15.0001C10.0001 12.2389 12.2389 10.0001 15.0001 10.0001C17.7614 10.0001 20.0001 12.2389 20.0001 15.0001C20.0001 17.7614 17.7614 20.0001 15.0001 20.0001Z" fill="white"/>
<path id="Vector_3" d="M23.0075 8.79238C24.0016 8.79238 24.8075 7.9865 24.8075 6.99238C24.8075 5.99827 24.0016 5.19238 23.0075 5.19238C22.0134 5.19238 21.2075 5.99827 21.2075 6.99238C21.2075 7.9865 22.0134 8.79238 23.0075 8.79238Z" fill="white"/>
</g>
</svg>
