<svg width="32" height="28" viewBox="0 0 32 28" fill="none" xmlns="http://www.w3.org/2000/svg">
<g id="telegram">
<path id="Vector" d="M31.5058 0.741209C31.115 0.263183 30.5295 0 29.8572 0C29.4917 0 29.1045 0.0769041 28.7065 0.229003L1.61919 10.5691C0.18169 11.1176 -0.0119126 11.9409 0.000538503 12.3828C0.0129896 12.8247 0.252979 13.6357 1.71928 14.1023C1.72807 14.1049 1.73686 14.1076 1.74565 14.1101L7.36429 15.718L10.4029 24.4069C10.8172 25.5915 11.7471 26.3273 12.8301 26.3273C13.513 26.3273 14.1846 26.0412 14.7725 25.5002L18.2478 22.3002L23.2886 26.3591C23.2891 26.3596 23.2898 26.3598 23.2903 26.3603L23.3381 26.3989C23.3425 26.4023 23.3472 26.4059 23.3516 26.4094C23.9119 26.8439 24.5234 27.0734 25.1208 27.0737H25.1211C26.2883 27.0737 27.2178 26.2097 27.4885 24.8727L31.9267 2.95776C32.105 2.07812 31.9555 1.29101 31.5058 0.741209ZM9.24393 15.4126L20.084 9.87473L13.3342 17.0468C13.2237 17.1643 13.1453 17.3081 13.1067 17.4646L11.8052 22.7365L9.24393 15.4126ZM13.5022 24.1208C13.4573 24.1621 13.4121 24.1989 13.367 24.2329L14.5745 19.3422L16.771 21.111L13.5022 24.1208ZM30.0891 2.58544L25.6509 24.5007C25.6081 24.7104 25.4717 25.1984 25.1208 25.1984C24.9475 25.1984 24.7297 25.1039 24.5068 24.9323L18.7949 20.3332C18.7942 20.3325 18.7932 20.3317 18.7922 20.3312L15.3936 17.5944L25.1545 7.22264C25.467 6.89061 25.4953 6.38206 25.2217 6.01732C24.9477 5.65257 24.4514 5.53783 24.0454 5.74535L7.99124 13.947L2.29619 12.3176L29.3752 1.98071C29.604 1.89331 29.7637 1.875 29.8572 1.875C29.9145 1.875 30.0166 1.88183 30.0544 1.92846C30.1042 1.98925 30.1677 2.19653 30.0891 2.58544Z" fill="white"/>
</g>
</svg>
